<svg width="230" height="32" viewBox="0 0 230 32" fill="none" xmlns="http://www.w3.org/2000/svg">
<g opacity="0.7">
<path d="M224.394 2.33221C224.394 1.04419 225.443 5.21348e-05 226.737 5.2078e-05C228.031 5.20213e-05 229.081 1.04419 229.081 2.33221C229.081 3.62023 228.031 4.66437 226.737 4.66437C225.443 4.66437 224.394 3.62023 224.394 2.33221Z" fill="#25157A"/>
<path d="M197.715 2.33221C197.715 1.04419 198.764 5.21348e-05 200.058 5.2078e-05C201.352 5.20213e-05 202.402 1.04419 202.402 2.33221C202.402 3.62023 201.352 4.66437 200.058 4.66437C198.764 4.66437 197.715 3.62023 197.715 2.33221Z" fill="#25157A"/>
<path d="M171.035 2.33221C171.035 1.04419 172.084 5.21348e-05 173.379 5.2078e-05C174.673 5.20213e-05 175.722 1.04419 175.722 2.33221C175.722 3.62023 174.673 4.66437 173.379 4.66437C172.084 4.66437 171.035 3.62023 171.035 2.33221Z" fill="#25157A"/>
<path d="M144.356 2.33221C144.356 1.04419 145.405 5.21348e-05 146.7 5.2078e-05C147.994 5.20213e-05 149.043 1.04419 149.043 2.33221C149.043 3.62023 147.994 4.66437 146.7 4.66437C145.405 4.66437 144.356 3.62023 144.356 2.33221Z" fill="#25157A"/>
<path d="M118.398 2.33215C118.398 1.04413 119.447 -8.90035e-06 120.741 -8.95712e-06C122.035 -9.01389e-06 123.085 1.04413 123.085 2.33215C123.085 3.62016 122.035 4.66431 120.741 4.66431C119.447 4.66431 118.398 3.62016 118.398 2.33215Z" fill="#25157A"/>
<path d="M91.7179 2.33215C91.7179 1.04413 92.7672 -8.90034e-06 94.0614 -8.95711e-06C95.3557 -9.01388e-06 96.4049 1.04413 96.4049 2.33215C96.4049 3.62016 95.3557 4.66431 94.0614 4.66431C92.7672 4.66431 91.7179 3.62016 91.7179 2.33215Z" fill="#25157A"/>
<path d="M65.039 29.6005C65.039 28.3124 66.0882 27.2683 67.3824 27.2683C68.6767 27.2683 69.7259 28.3124 69.7259 29.6005C69.7259 30.8885 68.6767 31.9326 67.3824 31.9326C66.0882 31.9326 65.039 30.8885 65.039 29.6005Z" fill="#25157A"/>
<path d="M65.039 2.33215C65.039 1.04413 66.0882 -8.90034e-06 67.3824 -8.95711e-06C68.6767 -9.01388e-06 69.7259 1.04413 69.7259 2.33215C69.7259 3.62016 68.6767 4.66431 67.3824 4.66431C66.0882 4.66431 65.039 3.62016 65.039 2.33215Z" fill="#25157A"/>
<path d="M38.3593 29.6005C38.3593 28.3125 39.4085 27.2684 40.7028 27.2684C41.9971 27.2684 43.0463 28.3125 43.0463 29.6005C43.0463 30.8885 41.9971 31.9327 40.7028 31.9327C39.4085 31.9327 38.3593 30.8885 38.3593 29.6005Z" fill="#25157A"/>
<path d="M38.3593 2.33215C38.3593 1.04413 39.4086 -8.90033e-06 40.7028 -8.95711e-06C41.9971 -9.01388e-06 43.0463 1.04413 43.0463 2.33215C43.0463 3.62016 41.9971 4.66431 40.7028 4.66431C39.4086 4.66431 38.3593 3.62016 38.3593 2.33215Z" fill="#25157A"/>
<path d="M11.6797 29.6005C11.6797 28.3125 12.7289 27.2684 14.0231 27.2684C15.3174 27.2684 16.3666 28.3125 16.3666 29.6005C16.3666 30.8885 15.3174 31.9327 14.0231 31.9327C12.7289 31.9327 11.6797 30.8885 11.6797 29.6005Z" fill="#25157A"/>
<path d="M11.6797 2.33221C11.6797 1.04419 12.7289 5.21348e-05 14.0231 5.2078e-05C15.3174 5.20213e-05 16.3666 1.04419 16.3666 2.33221C16.3666 3.62023 15.3174 4.66437 14.0231 4.66437C12.7289 4.66437 11.6797 3.62023 11.6797 2.33221Z" fill="#25157A"/>
</g>
</svg>
