<svg width="112" height="223" viewBox="0 0 112 223" fill="none" xmlns="http://www.w3.org/2000/svg">
<g opacity="0.7">
<path d="M4.68693 111.332C4.68693 112.62 3.63773 113.664 2.34347 113.664C1.0492 113.664 -1.57438e-07 112.62 -1.01423e-07 111.332C-4.54087e-08 110.044 1.04921 109 2.34347 109C3.63773 109 4.68693 110.044 4.68693 111.332Z" fill="#25157A"/>
<path d="M4.68693 138.6C4.68693 139.888 3.63773 140.933 2.34347 140.933C1.0492 140.933 -1.57437e-07 139.888 -1.01423e-07 138.6C-4.54086e-08 137.312 1.04921 136.268 2.34347 136.268C3.63773 136.268 4.68693 137.312 4.68693 138.6Z" fill="#25157A"/>
<path d="M4.68693 165.869C4.68693 167.157 3.63773 168.201 2.34347 168.201C1.0492 168.201 -1.57438e-07 167.157 -1.01423e-07 165.869C-4.54087e-08 164.581 1.04921 163.537 2.34347 163.537C3.63773 163.537 4.68693 164.581 4.68693 165.869Z" fill="#25157A"/>
<path d="M4.68693 193.137C4.68693 194.425 3.63773 195.469 2.34347 195.469C1.0492 195.469 -1.57438e-07 194.425 -1.01423e-07 193.137C-4.54087e-08 191.849 1.04921 190.805 2.34347 190.805C3.63773 190.805 4.68693 191.849 4.68693 193.137Z" fill="#25157A"/>
<path d="M4.68693 220.405C4.68693 221.693 3.63773 222.738 2.34347 222.738C1.0492 222.738 -1.57438e-07 221.693 -1.01423e-07 220.405C-4.54087e-08 219.117 1.04921 218.073 2.34347 218.073C3.63773 218.073 4.68693 219.117 4.68693 220.405Z" fill="#25157A"/>
<path d="M31.3666 111.332C31.3666 112.62 30.3174 113.664 29.0232 113.664C27.7289 113.664 26.6797 112.62 26.6797 111.332C26.6797 110.044 27.7289 109 29.0232 109C30.3174 109 31.3666 110.044 31.3666 111.332Z" fill="#25157A"/>
<path d="M31.3666 138.6C31.3666 139.888 30.3174 140.933 29.0232 140.933C27.7289 140.933 26.6797 139.888 26.6797 138.6C26.6797 137.312 27.7289 136.268 29.0232 136.268C30.3174 136.268 31.3666 137.312 31.3666 138.6Z" fill="#25157A"/>
<path d="M31.3666 165.869C31.3666 167.157 30.3174 168.201 29.0232 168.201C27.7289 168.201 26.6797 167.157 26.6797 165.869C26.6797 164.581 27.7289 163.537 29.0232 163.537C30.3174 163.537 31.3666 164.581 31.3666 165.869Z" fill="#25157A"/>
<path d="M31.3666 193.137C31.3666 194.425 30.3174 195.469 29.0232 195.469C27.7289 195.469 26.6797 194.425 26.6797 193.137C26.6797 191.849 27.7289 190.805 29.0232 190.805C30.3174 190.805 31.3666 191.849 31.3666 193.137Z" fill="#25157A"/>
<path d="M31.3666 220.405C31.3666 221.693 30.3174 222.738 29.0232 222.738C27.7289 222.738 26.6797 221.693 26.6797 220.405C26.6797 219.117 27.7289 218.073 29.0232 218.073C30.3174 218.073 31.3666 219.117 31.3666 220.405Z" fill="#25157A"/>
<path d="M58.0463 111.332C58.0463 112.62 56.9971 113.664 55.7028 113.664C54.4086 113.664 53.3594 112.62 53.3594 111.332C53.3594 110.044 54.4086 109 55.7028 109C56.9971 109 58.0463 110.044 58.0463 111.332Z" fill="#25157A"/>
<path d="M58.0448 138.6C58.0448 139.888 56.9956 140.933 55.7014 140.933C54.4071 140.933 53.3579 139.888 53.3579 138.6C53.3579 137.312 54.4071 136.268 55.7014 136.268C56.9956 136.268 58.0448 137.312 58.0448 138.6Z" fill="#25157A"/>
<path d="M58.0463 165.869C58.0463 167.157 56.9971 168.201 55.7028 168.201C54.4086 168.201 53.3594 167.157 53.3594 165.869C53.3594 164.581 54.4086 163.537 55.7028 163.537C56.9971 163.537 58.0463 164.581 58.0463 165.869Z" fill="#25157A"/>
<path d="M58.0463 193.137C58.0463 194.425 56.9971 195.469 55.7028 195.469C54.4086 195.469 53.3594 194.425 53.3594 193.137C53.3594 191.849 54.4086 190.805 55.7028 190.805C56.9971 190.805 58.0463 191.849 58.0463 193.137Z" fill="#25157A"/>
<path d="M58.0463 220.405C58.0463 221.693 56.9971 222.738 55.7028 222.738C54.4086 222.738 53.3594 221.693 53.3594 220.405C53.3594 219.117 54.4086 218.073 55.7028 218.073C56.9971 218.073 58.0463 219.117 58.0463 220.405Z" fill="#25157A"/>
<path d="M84.7259 111.332C84.7259 112.62 83.6767 113.664 82.3824 113.664C81.0881 113.664 80.0389 112.62 80.0389 111.332C80.0389 110.044 81.0881 109 82.3824 109C83.6767 109 84.7259 110.044 84.7259 111.332Z" fill="#25157A"/>
<path d="M84.7245 138.6C84.7245 139.888 83.6753 140.933 82.3811 140.933C81.0868 140.933 80.0376 139.888 80.0376 138.6C80.0376 137.312 81.0868 136.268 82.3811 136.268C83.6753 136.268 84.7245 137.312 84.7245 138.6Z" fill="#25157A"/>
<path d="M84.7259 165.869C84.7259 167.157 83.6767 168.201 82.3824 168.201C81.0881 168.201 80.0389 167.157 80.0389 165.869C80.0389 164.581 81.0881 163.537 82.3824 163.537C83.6767 163.537 84.7259 164.581 84.7259 165.869Z" fill="#25157A"/>
<path d="M84.7259 193.137C84.7259 194.425 83.6767 195.469 82.3824 195.469C81.0881 195.469 80.0389 194.425 80.0389 193.137C80.0389 191.849 81.0881 190.805 82.3824 190.805C83.6767 190.805 84.7259 191.849 84.7259 193.137Z" fill="#25157A"/>
<path d="M84.7259 220.405C84.7259 221.693 83.6767 222.738 82.3824 222.738C81.0881 222.738 80.0389 221.693 80.0389 220.405C80.0389 219.117 81.0881 218.073 82.3824 218.073C83.6767 218.073 84.7259 219.117 84.7259 220.405Z" fill="#25157A"/>
<path d="M111.404 111.332C111.404 112.62 110.355 113.664 109.061 113.664C107.766 113.664 106.717 112.62 106.717 111.332C106.717 110.044 107.766 109 109.061 109C110.355 109 111.404 110.044 111.404 111.332Z" fill="#25157A"/>
<path d="M111.404 138.6C111.404 139.888 110.355 140.933 109.061 140.933C107.766 140.933 106.717 139.888 106.717 138.6C106.717 137.312 107.766 136.268 109.061 136.268C110.355 136.268 111.404 137.312 111.404 138.6Z" fill="#25157A"/>
<path d="M111.404 165.869C111.404 167.157 110.355 168.201 109.061 168.201C107.766 168.201 106.717 167.157 106.717 165.869C106.717 164.581 107.766 163.537 109.061 163.537C110.355 163.537 111.404 164.581 111.404 165.869Z" fill="#25157A"/>
<path d="M111.404 193.137C111.404 194.425 110.355 195.469 109.061 195.469C107.766 195.469 106.717 194.425 106.717 193.137C106.717 191.849 107.766 190.805 109.061 190.805C110.355 190.805 111.404 191.849 111.404 193.137Z" fill="#25157A"/>
<path d="M111.404 220.405C111.404 221.693 110.355 222.738 109.061 222.738C107.766 222.738 106.717 221.693 106.717 220.405C106.717 219.117 107.766 218.073 109.061 218.073C110.355 218.073 111.404 219.117 111.404 220.405Z" fill="#25157A"/>
</g>
<g opacity="0.7">
<path d="M4.68693 2.33216C4.68693 3.62017 3.63773 4.66432 2.34347 4.66432C1.0492 4.66432 -1.57419e-07 3.62017 -1.01411e-07 2.33216C-4.54032e-08 1.04414 1.04921 4.60839e-08 2.34347 1.02931e-07C3.63773 1.59779e-07 4.68693 1.04414 4.68693 2.33216Z" fill="#25157A"/>
<path d="M4.68693 29.6005C4.68693 30.8885 3.63773 31.9326 2.34347 31.9326C1.0492 31.9326 -1.57418e-07 30.8885 -1.01411e-07 29.6005C-4.54031e-08 28.3125 1.04921 27.2683 2.34347 27.2683C3.63773 27.2683 4.68693 28.3125 4.68693 29.6005Z" fill="#25157A"/>
<path d="M4.68693 56.8688C4.68693 58.1568 3.63773 59.2009 2.34347 59.2009C1.0492 59.2009 -1.57419e-07 58.1568 -1.01411e-07 56.8688C-4.54034e-08 55.5808 1.04921 54.5366 2.34347 54.5366C3.63773 54.5366 4.68693 55.5808 4.68693 56.8688Z" fill="#25157A"/>
<path d="M4.68693 84.1371C4.68693 85.4251 3.63773 86.4692 2.34347 86.4692C1.0492 86.4692 -1.57433e-07 85.4251 -1.0142e-07 84.1371C-4.54074e-08 82.8491 1.04921 81.8049 2.34347 81.8049C3.63773 81.8049 4.68693 82.8491 4.68693 84.1371Z" fill="#25157A"/>
<path d="M31.3666 2.33216C31.3666 3.62017 30.3174 4.66432 29.0232 4.66432C27.7289 4.66432 26.6797 3.62017 26.6797 2.33216C26.6797 1.04414 27.7289 4.60839e-08 29.0232 1.02931e-07C30.3174 1.59779e-07 31.3666 1.04414 31.3666 2.33216Z" fill="#25157A"/>
<path d="M31.3666 29.6005C31.3666 30.8885 30.3174 31.9326 29.0232 31.9326C27.7289 31.9326 26.6797 30.8885 26.6797 29.6005C26.6797 28.3125 27.7289 27.2683 29.0232 27.2683C30.3174 27.2683 31.3666 28.3125 31.3666 29.6005Z" fill="#25157A"/>
<path d="M31.3666 56.8688C31.3666 58.1568 30.3174 59.2009 29.0232 59.2009C27.7289 59.2009 26.6797 58.1568 26.6797 56.8688C26.6797 55.5808 27.7289 54.5366 29.0232 54.5366C30.3174 54.5366 31.3666 55.5808 31.3666 56.8688Z" fill="#25157A"/>
<path d="M31.3666 84.1371C31.3666 85.4251 30.3174 86.4692 29.0232 86.4692C27.7289 86.4692 26.6797 85.4251 26.6797 84.1371C26.6797 82.8491 27.7289 81.8049 29.0232 81.8049C30.3174 81.8049 31.3666 82.8491 31.3666 84.1371Z" fill="#25157A"/>
<path d="M58.0463 2.33216C58.0463 3.62017 56.9971 4.66432 55.7028 4.66432C54.4086 4.66432 53.3594 3.62017 53.3594 2.33216C53.3594 1.04414 54.4086 4.60831e-08 55.7028 1.02929e-07C56.9971 1.59776e-07 58.0463 1.04414 58.0463 2.33216Z" fill="#25157A"/>
<path d="M58.0448 29.6005C58.0448 30.8885 56.9956 31.9326 55.7014 31.9326C54.4071 31.9326 53.3579 30.8885 53.3579 29.6005C53.3579 28.3125 54.4071 27.2683 55.7014 27.2683C56.9956 27.2683 58.0448 28.3125 58.0448 29.6005Z" fill="#25157A"/>
<path d="M58.0463 56.8688C58.0463 58.1568 56.9971 59.2009 55.7028 59.2009C54.4086 59.2009 53.3594 58.1568 53.3594 56.8688C53.3594 55.5808 54.4086 54.5366 55.7028 54.5366C56.9971 54.5366 58.0463 55.5808 58.0463 56.8688Z" fill="#25157A"/>
<path d="M58.0463 84.1371C58.0463 85.4251 56.9971 86.4692 55.7028 86.4692C54.4086 86.4692 53.3594 85.4251 53.3594 84.1371C53.3594 82.8491 54.4086 81.8049 55.7028 81.8049C56.9971 81.8049 58.0463 82.8491 58.0463 84.1371Z" fill="#25157A"/>
<path d="M84.7259 2.33216C84.7259 3.62017 83.6767 4.66432 82.3824 4.66432C81.0881 4.66432 80.0389 3.62017 80.0389 2.33216C80.0389 1.04414 81.0881 4.60829e-08 82.3824 1.02929e-07C83.6767 1.59775e-07 84.7259 1.04414 84.7259 2.33216Z" fill="#25157A"/>
<path d="M84.7245 29.6005C84.7245 30.8885 83.6753 31.9326 82.3811 31.9326C81.0868 31.9326 80.0376 30.8885 80.0376 29.6005C80.0376 28.3125 81.0868 27.2683 82.3811 27.2683C83.6753 27.2683 84.7245 28.3125 84.7245 29.6005Z" fill="#25157A"/>
<path d="M84.7259 56.8688C84.7259 58.1568 83.6767 59.2009 82.3824 59.2009C81.0881 59.2009 80.0389 58.1568 80.0389 56.8688C80.0389 55.5808 81.0881 54.5366 82.3824 54.5366C83.6767 54.5366 84.7259 55.5808 84.7259 56.8688Z" fill="#25157A"/>
<path d="M84.7259 84.1371C84.7259 85.4251 83.6767 86.4692 82.3824 86.4692C81.0881 86.4692 80.0389 85.4251 80.0389 84.1371C80.0389 82.8491 81.0881 81.8049 82.3824 81.8049C83.6767 81.8049 84.7259 82.8491 84.7259 84.1371Z" fill="#25157A"/>
<path d="M111.404 2.33216C111.404 3.62017 110.355 4.66432 109.061 4.66432C107.766 4.66432 106.717 3.62017 106.717 2.33216C106.717 1.04414 107.766 4.60839e-08 109.061 1.02931e-07C110.355 1.59779e-07 111.404 1.04414 111.404 2.33216Z" fill="#25157A"/>
<path d="M111.404 29.6005C111.404 30.8885 110.355 31.9326 109.061 31.9326C107.766 31.9326 106.717 30.8885 106.717 29.6005C106.717 28.3125 107.766 27.2683 109.061 27.2683C110.355 27.2683 111.404 28.3125 111.404 29.6005Z" fill="#25157A"/>
<path d="M111.404 56.8688C111.404 58.1568 110.355 59.2009 109.061 59.2009C107.766 59.2009 106.717 58.1568 106.717 56.8688C106.717 55.5808 107.766 54.5366 109.061 54.5366C110.355 54.5366 111.404 55.5808 111.404 56.8688Z" fill="#25157A"/>
<path d="M111.404 84.1371C111.404 85.4251 110.355 86.4692 109.061 86.4692C107.766 86.4692 106.717 85.4251 106.717 84.1371C106.717 82.8491 107.766 81.8049 109.061 81.8049C110.355 81.8049 111.404 82.8491 111.404 84.1371Z" fill="#25157A"/>
</g>
</svg>
