<svg width="183" height="40" viewBox="0 0 183 40" fill="none" xmlns="http://www.w3.org/2000/svg">
<path opacity="0.7" d="M12.3056 0.148605C6.18028 0.941162 0.986017 6.39 0.103972 12.9781C-0.680068 19.0709 3.04412 25.6591 8.77742 28.1853C13.5307 30.2658 18.5779 29.7209 22.4981 26.8479C24.6052 28.9779 26.7613 31.1574 28.8684 33.337C32.5436 37.1511 36.9538 38.6867 42.1481 38.0428C48.2734 37.2502 53.4677 31.8014 54.3497 25.2132C55.1338 19.1205 51.4096 12.5323 45.6763 10.006C40.9231 7.92558 35.8758 8.47046 31.9556 11.3435C29.8485 9.21348 27.6924 7.03395 25.5853 4.85442C22.4981 1.58512 18.8229 0 14.6087 0C13.8737 0 13.0896 0.0495349 12.3056 0.148605ZM7.69936 15.1081C7.69936 12.2351 9.41445 9.8079 11.8646 8.76767C14.4127 7.43023 17.0098 7.87604 19.1659 10.006C23.9192 14.6128 28.4274 19.4177 33.1317 24.0244C33.0827 23.7272 33.0827 23.43 33.0827 23.1328C33.0827 19.8139 35.3858 17.04 38.5219 16.396C38.7179 16.3465 38.914 16.3465 39.11 16.297C39.159 16.297 39.159 16.297 39.208 16.297C39.453 16.297 39.649 16.2474 39.894 16.2474C41.4621 16.2474 43.0302 16.7923 44.2552 17.8325C45.8233 19.1205 46.7544 21.1019 46.7544 23.1328C46.7544 23.4795 46.7054 23.7767 46.6564 24.1235C46.6564 24.173 46.6563 24.2721 46.6073 24.3216C46.5583 24.6188 46.4603 24.9656 46.3623 25.2628C46.3623 25.3123 46.3133 25.3618 46.3133 25.3618C46.2153 25.6591 46.1173 25.9067 45.9703 26.2039C45.9703 26.2535 45.9213 26.2535 45.9213 26.303C45.7743 26.6002 45.6273 26.8479 45.4313 27.1451C45.4313 27.1946 45.3823 27.1946 45.3823 27.2442C44.9903 27.7891 44.5002 28.2349 44.0102 28.6807L43.9612 28.7302C43.4222 29.1265 42.7851 29.4732 42.1481 29.7209C42.0991 29.7209 42.0501 29.7704 41.9521 29.7704C39.649 30.7116 37.2969 30.1667 35.2878 28.2349C30.5345 23.6281 26.0263 18.8232 21.3221 14.167C21.3711 14.4642 21.4201 14.8109 21.4201 15.1577C21.4201 18.9719 18.3819 22.043 14.6087 22.043C10.7375 21.9935 7.69936 18.8728 7.69936 15.1081Z" fill="white"/>
<g opacity="0.7">
<path fill-rule="evenodd" clip-rule="evenodd" d="M96.0851 36.7304C96.869 36.7304 97.3099 36.431 97.3099 35.8322C97.3099 35.2333 96.918 34.9838 96.0851 34.9838H95.2522V36.7304H96.0851ZM95.9381 33.886C96.673 33.886 96.967 33.5865 96.967 33.0875C96.967 32.5885 96.624 32.3889 95.9381 32.3889H95.2522V33.9359H95.9381V33.886ZM93.7824 31.1912H96.0361C97.4079 31.1912 98.4368 31.5904 98.4368 32.838C98.4368 33.4368 98.0938 34.0856 97.3099 34.2852V34.3351C98.2408 34.5347 98.7307 35.0337 98.7307 35.8821C98.7307 37.2294 97.6039 37.8283 96.1831 37.8283H93.7334L93.7824 31.1912ZM105.982 34.5347C105.982 33.1873 105.394 32.3889 104.512 32.3889C103.63 32.3889 103.042 33.1873 103.042 34.5347C103.042 35.8821 103.63 36.7304 104.512 36.7304C105.443 36.7304 105.982 35.8821 105.982 34.5347ZM101.523 34.5347C101.523 32.339 102.748 31.0914 104.512 31.0914C106.276 31.0914 107.501 32.339 107.501 34.5347C107.501 36.7304 106.276 38.0279 104.512 38.0279C102.748 38.0279 101.523 36.6805 101.523 34.5347ZM110.734 31.1912H112.204V34.9339C112.204 36.2314 112.596 36.6805 113.331 36.6805C114.066 36.6805 114.507 36.2314 114.507 34.9339V31.1912H115.927V34.7842C115.927 37.0298 115.045 38.0279 113.331 38.0279C111.616 38.0279 110.734 37.0298 110.734 34.7842V31.1912ZM120.729 32.4887H118.916V31.2411H124.011V32.4887H122.199V37.8782H120.729V32.4887ZM127 37.8782V31.1912H128.47V37.8782C128.519 37.8782 127 37.8782 127 37.8782ZM134.692 36.7304C135.574 36.7304 136.162 35.8821 136.162 34.5347C136.162 33.1873 135.623 32.3889 134.692 32.3889C133.81 32.3889 133.222 33.1873 133.222 34.5347C133.222 35.8821 133.81 36.7304 134.692 36.7304ZM138.023 39.525C137.778 39.6248 137.386 39.7246 136.847 39.7246C135.476 39.7246 134.496 38.976 134.006 37.9281C132.585 37.6287 131.703 36.3811 131.703 34.4848C131.703 32.2891 132.928 31.0415 134.692 31.0415C136.456 31.0415 137.68 32.2891 137.68 34.4848C137.68 36.2813 136.847 37.479 135.574 37.8782C135.868 38.3273 136.456 38.5269 136.994 38.5269C137.288 38.5269 137.533 38.477 137.729 38.4271L138.023 39.525ZM140.914 31.1912H142.384V34.9339C142.384 36.2314 142.776 36.6805 143.511 36.6805C144.245 36.6805 144.686 36.2314 144.686 34.9339V31.1912H146.107V34.7842C146.107 37.0298 145.225 38.0279 143.511 38.0279C141.796 38.0279 140.914 37.0298 140.914 34.7842V31.1912ZM149.635 31.1912H153.75V32.4887H151.105V33.8361H153.358V35.0836H151.105V36.6306H153.848V37.8782H149.635V31.1912Z" fill="white"/>
<path fill-rule="evenodd" clip-rule="evenodd" d="M73.1083 20.2143C75.117 20.2143 76.0479 19.4658 76.0479 18.0188C76.0479 16.6216 75.117 16.0229 73.1083 16.0229H71.0506V20.2143H73.1083ZM72.7653 12.4801C74.4311 12.4801 75.215 11.6319 75.215 10.4842C75.215 9.33657 74.4311 8.83759 72.7653 8.83759H71.0506V12.4801H72.7653ZM65.9553 4.89567H72.8633C76.8808 4.89567 80.1633 5.89363 80.1633 9.68585C80.1633 11.3325 79.2324 13.2286 76.9787 13.8274V13.9272C79.7224 14.476 81.0452 15.8732 81.0452 18.418C81.0452 22.3599 77.6157 24.1063 73.4512 24.1063H65.9553V4.89567ZM157.573 6.79178H151.694V4.74598H165.951V6.79178H160.071V24.1063H157.622L157.573 6.79178ZM177.905 16.2225L176.974 13.2785C176.288 11.1329 175.651 8.93739 175.063 6.74189H174.965C174.377 8.93739 173.74 11.1329 173.055 13.2785L172.124 16.2225H177.905ZM178.542 18.2184H171.438L169.576 24.1063H167.077L173.643 4.69608H176.435L183 24.1063H180.404L178.542 18.2184ZM85.6506 24.1063V4.89567H90.7459V24.1063H85.6506ZM105.493 4.54639C108.236 4.54639 110.294 5.74394 111.666 7.09117L108.873 10.2347C107.943 9.38647 107.11 8.93739 105.542 8.93739C102.945 8.93739 100.985 10.9832 100.985 14.476C100.985 18.0687 102.602 20.1145 106.032 20.1145C106.571 20.1145 107.159 20.0147 107.502 19.7652V17.1206H104.66V12.9791H112.009V22.1603C110.588 23.3578 108.089 24.5055 105.395 24.5055C100.104 24.5055 95.7922 21.2621 95.7922 14.6756C95.7922 8.23882 100.202 4.54639 105.493 4.54639ZM122.445 22.1104C127.001 22.1104 129.255 19.2662 129.255 14.3263C129.255 9.43637 127.001 6.74189 122.445 6.74189H120.24V22.1104H122.445ZM117.741 4.74598H122.592C128.569 4.74598 131.753 8.18892 131.753 14.3762C131.753 20.5636 128.569 24.1562 122.689 24.1562H117.741V4.74598ZM145.422 16.2225L144.492 13.2785C143.806 11.1329 143.169 8.93739 142.581 6.74189H142.483C141.895 8.93739 141.258 11.1329 140.572 13.2785L139.641 16.2225H145.422ZM146.059 18.2184H139.004L137.143 24.1063H134.644L141.209 4.69608H144.002L150.567 24.1063H147.921L146.059 18.2184ZM65.6123 35.7325V34.4351H89.57V35.7325H65.6123ZM159.043 35.7325V34.4351H183V35.7325H159.043Z" fill="white"/>
</g>
</svg>
