<svg width="245" height="32" viewBox="0 0 245 32" fill="none" xmlns="http://www.w3.org/2000/svg">
<g opacity="0.7">
<path d="M239.393 29.6679C239.393 30.9559 240.442 32 241.736 32C243.03 32 244.08 30.9559 244.08 29.6679C244.08 28.3798 243.03 27.3357 241.736 27.3357C240.442 27.3357 239.393 28.3798 239.393 29.6679Z" fill="#25157A"/>
<path d="M212.715 29.6679C212.715 30.9559 213.764 32 215.058 32C216.353 32 217.402 30.9559 217.402 29.6679C217.402 28.3798 216.353 27.3357 215.058 27.3357C213.764 27.3357 212.715 28.3798 212.715 29.6679Z" fill="#25157A"/>
<path d="M186.035 29.6679C186.035 30.9559 187.084 32 188.379 32C189.673 32 190.722 30.9559 190.722 29.6679C190.722 28.3798 189.673 27.3357 188.379 27.3357C187.084 27.3357 186.035 28.3798 186.035 29.6679Z" fill="#25157A"/>
<path d="M159.355 29.6679C159.355 30.9559 160.405 32 161.699 32C162.993 32 164.042 30.9559 164.042 29.6679C164.042 28.3798 162.993 27.3357 161.699 27.3357C160.405 27.3357 159.355 28.3798 159.355 29.6679Z" fill="#25157A"/>
<path d="M133.397 29.6679C133.397 30.9559 134.446 32 135.74 32C137.034 32 138.083 30.9559 138.083 29.6679C138.083 28.3798 137.034 27.3357 135.74 27.3357C134.446 27.3357 133.397 28.3798 133.397 29.6679Z" fill="#25157A"/>
<path d="M106.717 29.6679C106.717 30.9559 107.766 32 109.06 32C110.355 32 111.404 30.9559 111.404 29.6679C111.404 28.3798 110.355 27.3357 109.06 27.3357C107.766 27.3357 106.717 28.3798 106.717 29.6679Z" fill="#25157A"/>
<path d="M80.0391 2.39954C80.0391 3.68756 81.0883 4.7317 82.3825 4.7317C83.6768 4.7317 84.726 3.68756 84.726 2.39954C84.726 1.11153 83.6768 0.0673828 82.3825 0.0673827C81.0883 0.0673827 80.0391 1.11153 80.0391 2.39954Z" fill="#25157A"/>
<path d="M80.0391 29.6679C80.0391 30.9559 81.0883 32 82.3825 32C83.6768 32 84.726 30.9559 84.726 29.6679C84.726 28.3798 83.6768 27.3357 82.3825 27.3357C81.0883 27.3357 80.0391 28.3798 80.0391 29.6679Z" fill="#25157A"/>
<path d="M53.3594 2.39954C53.3594 3.68756 54.4086 4.7317 55.7028 4.7317C56.9971 4.7317 58.0463 3.68756 58.0463 2.39954C58.0463 1.11153 56.9971 0.0673828 55.7028 0.0673827C54.4086 0.0673827 53.3594 1.11153 53.3594 2.39954Z" fill="#25157A"/>
<path d="M53.3594 29.6679C53.3594 30.9559 54.4086 32 55.7028 32C56.9971 32 58.0463 30.9559 58.0463 29.6679C58.0463 28.3798 56.9971 27.3357 55.7028 27.3357C54.4086 27.3357 53.3594 28.3798 53.3594 29.6679Z" fill="#25157A"/>
<path d="M26.6797 2.39954C26.6797 3.68756 27.7289 4.7317 29.0231 4.7317C30.3174 4.7317 31.3666 3.68756 31.3666 2.39954C31.3666 1.11153 30.3174 0.0673828 29.0231 0.0673827C27.7289 0.0673827 26.6797 1.11153 26.6797 2.39954Z" fill="#25157A"/>
<path d="M26.6797 29.6679C26.6797 30.9559 27.7289 32 29.0231 32C30.3174 32 31.3666 30.9559 31.3666 29.6679C31.3666 28.3798 30.3174 27.3357 29.0231 27.3357C27.7289 27.3357 26.6797 28.3798 26.6797 29.6679Z" fill="#25157A"/>
<path d="M-1.06056e-05 2.39954C-1.06692e-05 3.68756 1.04919 4.7317 2.34345 4.7317C3.63771 4.7317 4.68692 3.68756 4.68692 2.39954C4.68692 1.11153 3.63771 0.0673828 2.34345 0.0673827C1.04919 0.0673827 -1.0542e-05 1.11153 -1.06056e-05 2.39954Z" fill="#25157A"/>
<path d="M-1.06056e-05 29.6679C-1.06692e-05 30.9559 1.04919 32 2.34345 32C3.63771 32 4.68692 30.9559 4.68692 29.6679C4.68692 28.3798 3.63771 27.3357 2.34345 27.3357C1.04919 27.3357 -1.0542e-05 28.3798 -1.06056e-05 29.6679Z" fill="#25157A"/>
</g>
</svg>
