<svg width="40" height="40" viewBox="0 0 40 40" fill="none" xmlns="http://www.w3.org/2000/svg">
<rect x="0.749756" y="0.75" width="38.5" height="38.5" rx="19.25" stroke="#8141DD" stroke-width="1.5"/>
<path d="M18.4312 22.7238C18.4312 24.8409 18.4312 26.4972 18.4312 28.5923C18.4312 28.9231 18.4533 28.9451 18.7841 28.9451C19.8867 28.9451 20.9894 28.9451 22.092 28.9451C22.5552 28.9451 22.5552 28.9451 22.5552 28.5041C22.5552 26.409 22.5552 24.7527 22.5552 22.6577C22.5552 21.9961 22.6213 21.3124 22.8639 20.6949C23.2388 19.7246 24.1209 19.2174 25.3118 19.2835C26.3262 19.3497 26.9217 19.879 27.1863 20.9155C27.2966 21.4227 27.3407 21.9299 27.3407 22.4371C27.3407 24.6425 27.3407 26.387 27.3407 28.6143C27.3407 28.9451 27.3627 28.9672 27.6935 28.9672C28.8403 28.9672 29.965 28.9672 31.1118 28.9672C31.4426 28.9672 31.4646 28.9451 31.4867 28.6143C31.5087 26.9824 31.4646 25.8113 31.5087 24.2014C31.5308 23.1208 31.5087 22.0622 31.4646 20.9816C31.4426 20.32 31.3544 19.6584 31.1779 18.9968C30.9133 17.9824 30.4722 17.1003 29.5901 16.4828C28.8624 15.9756 28.0243 15.7771 27.1422 15.6889C25.2677 15.5124 23.724 16.0638 22.6434 17.6296C22.5993 17.6957 22.5772 17.806 22.4669 17.7619C22.3787 17.7178 22.4008 17.6296 22.4008 17.5413C22.4008 17.1444 22.4008 16.7695 22.4008 16.3725C22.4008 16.0197 22.3787 15.9976 22.0259 15.9976C20.9673 15.9976 19.9308 15.9976 18.8723 15.9976C18.4533 15.9976 18.4312 15.9976 18.4312 16.4166C18.4312 18.5337 18.4312 20.6288 18.4312 22.7238ZM10.9339 22.7238C10.9339 24.8189 10.9339 26.4752 10.9339 28.5702C10.9339 28.9451 10.956 28.9672 11.3309 28.9672C12.4556 28.9672 13.5803 28.9672 14.683 28.9672C15.0358 28.9672 15.0579 28.9451 15.0579 28.5923C15.0579 24.3801 15.0579 20.6288 15.0579 16.4166C15.0579 16.0417 15.0358 16.0197 14.6609 16.0197C13.5582 16.0197 12.4556 16.0197 11.3529 16.0197C10.9339 16.0197 10.9119 16.0417 10.9119 16.4387C10.9339 18.5337 10.9339 20.6288 10.9339 22.7238Z" stroke="#8141DD" stroke-width="1.5" stroke-linecap="round" stroke-linejoin="round"/>
<circle cx="12.9772" cy="11.2505" r="2.41789" stroke="#8141DD" stroke-width="1.5" stroke-linecap="round" stroke-linejoin="round"/>
</svg>
