<svg width="40" height="40" viewBox="0 0 40 40" fill="none" xmlns="http://www.w3.org/2000/svg">
<path d="M18.2893 21.3605C18.6874 21.8927 19.1953 22.333 19.7786 22.6517C20.3618 22.9703 21.0068 23.1598 21.6697 23.2073C22.3326 23.2548 22.998 23.1591 23.6207 22.9269C24.2434 22.6946 24.8089 22.3311 25.2788 21.861L28.0597 19.0801C28.904 18.2059 29.3712 17.0351 29.3606 15.8199C29.3501 14.6046 28.8626 13.4421 28.0033 12.5828C27.1439 11.7234 25.9814 11.236 24.7661 11.2254C23.5509 11.2148 22.3801 11.682 21.5059 12.5263L19.9115 14.1114" stroke="#8141DD" stroke-width="1.5" stroke-linecap="round" stroke-linejoin="round"/>
<path d="M21.9975 19.5063C21.5994 18.9741 21.0915 18.5337 20.5083 18.2151C19.925 17.8964 19.2801 17.7069 18.6171 17.6594C17.9542 17.6119 17.2888 17.7076 16.6661 17.9399C16.0434 18.1722 15.4779 18.5357 15.0081 19.0057L12.2271 21.7867C11.3828 22.6608 10.9156 23.8316 10.9262 25.0469C10.9368 26.2621 11.4242 27.4246 12.2836 28.284C13.1429 29.1433 14.3054 29.6308 15.5207 29.6413C16.7359 29.6519 17.9067 29.1847 18.7809 28.3404L20.366 26.7553" stroke="#8141DD" stroke-width="1.5" stroke-linecap="round" stroke-linejoin="round"/>
<rect x="0.749756" y="0.75" width="38.5" height="38.5" rx="19.25" stroke="#8141DD" stroke-width="1.5"/>
</svg>
