<svg width="205" height="50" viewBox="0 0 205 50" fill="none" xmlns="http://www.w3.org/2000/svg">
<path fill-rule="evenodd" clip-rule="evenodd" d="M0.979492 3.54383V42.7838H7.93949V28.3838H13.5795C15.6995 28.3838 17.6595 28.1438 19.4595 27.6638C21.2995 27.1438 22.8795 26.3638 24.1995 25.3238C25.5595 24.2438 26.6195 22.9038 27.3795 21.3038C28.1395 19.7038 28.5195 17.8238 28.5195 15.6638C28.5195 13.3838 28.1395 11.4838 27.3795 9.96383C26.6195 8.40383 25.5595 7.14383 24.1995 6.18383C22.8395 5.22383 21.2195 4.54383 19.3395 4.14383C17.4995 3.74383 15.4995 3.54383 13.3395 3.54383H0.979492ZM13.0395 22.8038H7.93949V9.12383H12.7995C15.7195 9.12383 17.9195 9.60383 19.3995 10.5638C20.9195 11.4838 21.6795 13.1838 21.6795 15.6638C21.6795 20.4238 18.7995 22.8038 13.0395 22.8038ZM37.1614 40.5038C38.6014 42.5038 40.9014 43.5038 44.0614 43.5038C46.1014 43.5038 47.8614 43.0438 49.3414 42.1238C50.8614 41.2038 52.2614 39.9838 53.5414 38.4638H53.7214L54.2614 42.7838H59.9014V13.3238H53.0014V33.4838C51.8814 34.9238 50.8214 35.9638 49.8214 36.6038C48.8614 37.2438 47.7414 37.5638 46.4614 37.5638C44.8614 37.5638 43.7014 37.0638 42.9814 36.0638C42.2614 35.0638 41.9014 33.3438 41.9014 30.9038V13.3238H35.0014V31.8038C35.0014 35.5638 35.7214 38.4638 37.1614 40.5038ZM70.1412 41.2838C71.1412 42.7638 72.8812 43.5038 75.3612 43.5038C76.8812 43.5038 78.1012 43.3038 79.0212 42.9038L78.1212 37.7438C77.8412 37.8238 77.6212 37.8638 77.4612 37.8638H77.0412C76.6812 37.8638 76.3412 37.7038 76.0212 37.3838C75.7012 37.0238 75.5412 36.4238 75.5412 35.5838V0.423828H68.6412V35.2238C68.6412 37.7838 69.1412 39.8038 70.1412 41.2838ZM87.0903 42.3638C89.0903 43.1238 91.1103 43.5038 93.1503 43.5038C94.9903 43.5038 96.6303 43.2638 98.0703 42.7838C99.5103 42.3038 100.71 41.6638 101.67 40.8638C102.63 40.0238 103.35 39.0638 103.83 37.9838C104.35 36.8638 104.61 35.6638 104.61 34.3838C104.61 33.0238 104.35 31.8638 103.83 30.9038C103.35 29.9038 102.69 29.0638 101.85 28.3838C101.05 27.7038 100.15 27.1438 99.1503 26.7038C98.1503 26.2238 97.1503 25.8038 96.1503 25.4438C95.3503 25.1638 94.5703 24.8838 93.8103 24.6038C93.0903 24.3238 92.4503 24.0238 91.8903 23.7038C91.3303 23.3838 90.8703 23.0238 90.5103 22.6238C90.1903 22.1838 90.0303 21.6638 90.0303 21.0638C90.0303 20.1438 90.3703 19.3838 91.0503 18.7838C91.7703 18.1438 92.8703 17.8238 94.3503 17.8238C95.5103 17.8238 96.6103 18.0638 97.6503 18.5438C98.7303 18.9838 99.7903 19.5838 100.83 20.3438L104.01 16.1438C102.81 15.2238 101.39 14.4038 99.7503 13.6838C98.1103 12.9638 96.2703 12.6038 94.2303 12.6038C90.9103 12.6038 88.2903 13.4238 86.3703 15.0638C84.4503 16.7038 83.4903 18.8238 83.4903 21.4238C83.4903 22.6638 83.7303 23.7438 84.2103 24.6638C84.7303 25.5438 85.3703 26.3238 86.1303 27.0038C86.9303 27.6838 87.8303 28.2638 88.8303 28.7438C89.8303 29.2238 90.8103 29.6438 91.7703 30.0038L94.0503 30.9638C94.8103 31.2438 95.4903 31.5638 96.0903 31.9238C96.6903 32.2838 97.1703 32.7038 97.5303 33.1838C97.8903 33.6238 98.0703 34.1438 98.0703 34.7438C98.0703 35.7838 97.6903 36.6438 96.9303 37.3238C96.1703 37.9638 94.9903 38.2838 93.3903 38.2838C91.8703 38.2838 90.4503 38.0038 89.1303 37.4438C87.8503 36.8438 86.5503 36.0238 85.2303 34.9838L81.9903 39.4238C83.4303 40.5838 85.1303 41.5638 87.0903 42.3638ZM117.67 42.4838C119.43 43.1638 121.33 43.5038 123.37 43.5038C125.25 43.5038 127.05 43.2038 128.77 42.6038C130.49 42.0038 132.05 41.2438 133.45 40.3238L131.11 36.0038C130.03 36.6838 128.93 37.2238 127.81 37.6238C126.73 37.9838 125.55 38.1638 124.27 38.1638C121.87 38.1638 119.89 37.4638 118.33 36.0638C116.81 34.6238 115.89 32.5838 115.57 29.9438H134.29C134.37 29.5838 134.43 29.1038 134.47 28.5038C134.55 27.9038 134.59 27.2638 134.59 26.5838C134.59 24.5438 134.33 22.6638 133.81 20.9438C133.29 19.2238 132.51 17.7438 131.47 16.5038C130.47 15.2638 129.21 14.3038 127.69 13.6238C126.17 12.9438 124.41 12.6038 122.41 12.6038C120.69 12.6038 119.01 12.9638 117.37 13.6838C115.73 14.4038 114.27 15.4238 112.99 16.7438C111.75 18.0638 110.75 19.6838 109.99 21.6038C109.23 23.5238 108.85 25.6838 108.85 28.0838C108.85 30.5238 109.21 32.7038 109.93 34.6238C110.69 36.5038 111.73 38.1038 113.05 39.4238C114.37 40.7438 115.91 41.7638 117.67 42.4838ZM128.59 25.2638H115.51C115.83 22.8638 116.65 21.0438 117.97 19.8038C119.29 18.5638 120.83 17.9438 122.59 17.9438C124.63 17.9438 126.13 18.6038 127.09 19.9238C128.09 21.2038 128.59 22.9838 128.59 25.2638ZM154.74 42.8802C155.42 43.2002 156.09 43.3602 156.75 43.3602C157.55 43.3602 158.32 43.1802 159.06 42.8202C159.82 42.4602 160.49 41.9402 161.07 41.2602C161.67 40.5602 162.14 39.7102 162.48 38.7102C162.84 37.7102 163.02 36.5702 163.02 35.2902C163.02 34.1502 162.88 33.1202 162.6 32.2002C162.34 31.2602 161.95 30.4702 161.43 29.8302C160.93 29.1702 160.32 28.6602 159.6 28.3002C158.88 27.9402 158.07 27.7602 157.17 27.7602C156.47 27.7602 155.78 27.9102 155.1 28.2102C154.44 28.4902 153.82 28.8902 153.24 29.4102L153.36 27.1302V21.9702H148.95V43.0002H152.4L152.76 41.4102H152.88C153.46 42.0502 154.08 42.5402 154.74 42.8802ZM157.68 38.7402C157.14 39.4202 156.49 39.7602 155.73 39.7602C155.35 39.7602 154.96 39.6902 154.56 39.5502C154.16 39.4102 153.76 39.1602 153.36 38.8002V32.7102C154.18 31.8102 155.03 31.3602 155.91 31.3602C157.63 31.3602 158.49 32.7002 158.49 35.3802C158.49 36.9202 158.22 38.0402 157.68 38.7402ZM168.277 43.0002C168.797 43.2402 169.437 43.3602 170.197 43.3602C170.697 43.3602 171.127 43.3202 171.487 43.2402C171.867 43.1802 172.177 43.1002 172.417 43.0002L171.877 39.7302C171.757 39.7702 171.657 39.7902 171.577 39.7902H171.337C171.157 39.7902 170.977 39.7002 170.797 39.5202C170.637 39.3402 170.557 39.0202 170.557 38.5602V21.9702H166.147V38.3802C166.147 39.1402 166.217 39.8302 166.357 40.4502C166.497 41.0502 166.717 41.5702 167.017 42.0102C167.337 42.4302 167.757 42.7602 168.277 43.0002ZM178.391 42.8502C179.271 43.1902 180.181 43.3602 181.121 43.3602C182.061 43.3602 182.961 43.1902 183.821 42.8502C184.701 42.4902 185.471 41.9802 186.131 41.3202C186.811 40.6602 187.351 39.8502 187.751 38.8902C188.151 37.9102 188.351 36.8002 188.351 35.5602C188.351 34.3202 188.151 33.2202 187.751 32.2602C187.351 31.2802 186.811 30.4602 186.131 29.8002C185.471 29.1402 184.701 28.6402 183.821 28.3002C182.961 27.9402 182.061 27.7602 181.121 27.7602C180.181 27.7602 179.271 27.9402 178.391 28.3002C177.511 28.6402 176.731 29.1402 176.051 29.8002C175.391 30.4602 174.861 31.2802 174.461 32.2602C174.061 33.2202 173.861 34.3202 173.861 35.5602C173.861 36.8002 174.061 37.9102 174.461 38.8902C174.861 39.8502 175.391 40.6602 176.051 41.3202C176.731 41.9802 177.511 42.4902 178.391 42.8502ZM183.161 38.6502C182.701 39.4102 182.021 39.7902 181.121 39.7902C180.201 39.7902 179.511 39.4102 179.051 38.6502C178.611 37.8902 178.391 36.8602 178.391 35.5602C178.391 34.2602 178.611 33.2302 179.051 32.4702C179.511 31.7102 180.201 31.3302 181.121 31.3302C182.021 31.3302 182.701 31.7102 183.161 32.4702C183.621 33.2302 183.851 34.2602 183.851 35.5602C183.851 36.8602 183.621 37.8902 183.161 38.6502ZM194.222 49.0902C194.982 49.2502 195.802 49.3302 196.682 49.3302C197.962 49.3302 199.112 49.1902 200.132 48.9102C201.152 48.6502 202.022 48.2802 202.742 47.8002C203.462 47.3402 204.012 46.7802 204.392 46.1202C204.792 45.4802 204.992 44.7702 204.992 43.9902C204.992 42.6502 204.502 41.6902 203.522 41.1102C202.562 40.5102 201.162 40.2102 199.322 40.2102H196.922C196.082 40.2102 195.492 40.1202 195.152 39.9402C194.832 39.7602 194.672 39.4802 194.672 39.1002C194.672 38.8402 194.712 38.6302 194.792 38.4702C194.872 38.3102 195.012 38.1502 195.212 37.9902C195.832 38.1902 196.432 38.2902 197.012 38.2902C197.832 38.2902 198.592 38.1902 199.292 37.9902C200.012 37.7902 200.632 37.4902 201.152 37.0902C201.692 36.6702 202.112 36.1502 202.412 35.5302C202.712 34.8902 202.862 34.1402 202.862 33.2802C202.862 32.8802 202.812 32.5102 202.712 32.1702C202.632 31.8302 202.522 31.5502 202.382 31.3302H204.752V28.1202H199.322C198.662 27.8802 197.892 27.7602 197.012 27.7602C196.212 27.7602 195.442 27.8702 194.702 28.0902C193.962 28.3102 193.302 28.6502 192.722 29.1102C192.162 29.5502 191.712 30.1102 191.372 30.7902C191.032 31.4502 190.862 32.2302 190.862 33.1302C190.862 34.0102 191.062 34.7902 191.462 35.4702C191.882 36.1302 192.352 36.6402 192.872 37.0002V37.1202C192.392 37.4602 191.992 37.8802 191.672 38.3802C191.352 38.8602 191.192 39.3702 191.192 39.9102C191.192 40.5302 191.322 41.0402 191.582 41.4402C191.842 41.8402 192.172 42.1702 192.572 42.4302V42.5502C191.152 43.3502 190.442 44.3502 190.442 45.5502C190.442 46.2102 190.602 46.7802 190.922 47.2602C191.242 47.7402 191.682 48.1302 192.242 48.4302C192.822 48.7302 193.482 48.9502 194.222 49.0902ZM198.452 35.0202C198.072 35.4202 197.592 35.6202 197.012 35.6202C196.432 35.6202 195.942 35.4202 195.542 35.0202C195.162 34.6002 194.972 33.9702 194.972 33.1302C194.972 32.3302 195.162 31.7302 195.542 31.3302C195.942 30.9302 196.432 30.7302 197.012 30.7302C197.592 30.7302 198.072 30.9402 198.452 31.3602C198.852 31.7602 199.052 32.3502 199.052 33.1302C199.052 33.9702 198.852 34.6002 198.452 35.0202ZM199.832 46.0302C199.192 46.3902 198.372 46.5702 197.372 46.5702C196.372 46.5702 195.572 46.4202 194.972 46.1202C194.372 45.8402 194.072 45.4202 194.072 44.8602C194.072 44.3602 194.342 43.8702 194.882 43.3902C195.122 43.4502 195.402 43.4902 195.722 43.5102C196.042 43.5502 196.462 43.5702 196.982 43.5702H198.512C199.252 43.5702 199.812 43.6502 200.192 43.8102C200.592 43.9702 200.792 44.2802 200.792 44.7402C200.792 45.2602 200.472 45.6902 199.832 46.0302Z" fill="url(#paint0_linear_1616_4393)"/>
<defs>
<linearGradient id="paint0_linear_1616_4393" x1="32.6452" y1="-12.6038" x2="105.018" y2="88.5467" gradientUnits="userSpaceOnUse">
<stop stop-color="#745CEB"/>
<stop offset="1" stop-color="#8040DC"/>
</linearGradient>
</defs>
</svg>
