<svg width="40" height="40" viewBox="0 0 40 40" fill="none" xmlns="http://www.w3.org/2000/svg">
<path d="M31.1816 12.3113C31.2066 12.2223 31.1062 12.153 31.0294 12.2044C30.1431 12.7972 29.1731 13.2552 28.1511 13.563C27.5568 12.8797 26.7671 12.3954 25.8887 12.1757C25.0102 11.9559 24.0855 12.0111 23.2395 12.334C22.3935 12.6569 21.6671 13.2319 21.1585 13.9811C20.6499 14.7302 20.3837 15.6176 20.3959 16.523V17.5097C18.6619 17.5546 16.9438 17.1701 15.3944 16.3902C13.8977 15.6369 12.6034 14.5372 11.6185 13.1837C11.5728 13.1209 11.4794 13.1255 11.4509 13.1978C10.9749 14.4049 8.26678 22.2301 16.4492 25.8668C14.4172 27.2461 11.9965 27.9377 9.54248 27.8401C18.4225 32.7735 29.2759 27.8401 29.2759 16.4934C29.275 16.2186 29.2485 15.9444 29.1969 15.6745C30.1406 14.7439 30.824 13.5843 31.1816 12.3113Z" stroke="#8141DD" stroke-width="1.5" stroke-linecap="round" stroke-linejoin="round"/>
<rect x="0.749756" y="0.75" width="38.5" height="38.5" rx="19.25" stroke="#8141DD" stroke-width="1.5"/>
</svg>
